# xmcd
#
# Track frame offsets:
# 150
# 16476
# 38704
# 53107
# 65063
# 79889
# 94583
# 110569
# 124053
# 140775
# 155679
# 174586
# 192713
# 207797
# 223175
# 240730
# 256189
#
# Disc length: 3613 seconds
#
#
# Revision: 0
# Processed by: cddbd v1.5.2PL0 Copyright (c) Steve Scherf et al.
# Submitted via: FreeRIP 2.95 
#
DISCID=000e1b11
DTITLE=Paraiso - Paraiso
DYEAR=1900
DGENRE=Bass
TTITLE0=paraiso1
TTITLE1=paraiso2
TTITLE2=paraiso3
TTITLE3=paraiso4
TTITLE4=paraiso5
TTITLE5=paraiso6
TTITLE6=paraiso7
TTITLE7=paraiso8
TTITLE8=paraiso9
TTITLE9=paraiso10
TTITLE10=paraiso11
TTITLE11=paraiso12
TTITLE12=paraiso13
TTITLE13=paraiso14
TTITLE14=paraiso15
TTITLE15=paraiso16
TTITLE16=paraiso17
EXTD=
EXTT0=
EXTT1=
EXTT2=
EXTT3=
EXTT4=
EXTT5=
EXTT6=
EXTT7=
EXTT8=
EXTT9=
EXTT10=
EXTT11=
EXTT12=
EXTT13=
EXTT14=
EXTT15=
EXTT16=
PLAYORDER=
